<?xml version="1.0" encoding="utf-8" ?>
<!DOCTYPE svg PUBLIC "-//W3C//DTD SVG 1.1//EN" "http://www.w3.org/Graphics/SVG/1.1/DTD/svg11.dtd">
<svg height="487" version="1.1" width="1447" xmlns="http://www.w3.org/2000/svg">
<rect fill="#ffffc8" height="67" stroke="#ffffc8" stroke-width="1" width="153" x="342" y="142"/>
<rect fill="none" height="67" stroke="#000000" stroke-width="1" width="153" x="342" y="142"/>
<text font-family="Dialog" font-size="12" x="347" y="155">
global_catch_ird_level0</text>
<rect fill="#000000" height="1" stroke="#000000" stroke-width="1" width="153" x="342" y="165"/>
<rect fill="#000000" height="1" stroke="#000000" stroke-width="1" width="153" x="342" y="186"/>
<rect fill="#ffffff" height="67" stroke="#ffffff" stroke-width="1" width="208" x="334" y="14"/>
<rect fill="none" height="67" stroke="#000000" stroke-width="1" width="208" x="334" y="14"/>
<text font-family="Dialog" font-size="12" x="339" y="27">
global_nominal_catch_ird_level0</text>
<rect fill="#000000" height="1" stroke="#000000" stroke-width="1" width="208" x="334" y="37"/>
<rect fill="#000000" height="1" stroke="#000000" stroke-width="1" width="208" x="334" y="58"/>
<rect fill="#c8ffff" height="67" stroke="#c8ffff" stroke-width="1" width="153" x="710" y="142"/>
<rect fill="none" height="67" stroke="#000000" stroke-width="1" width="153" x="710" y="142"/>
<text font-family="Dialog" font-size="12" x="715" y="155">
global_catch_ird_level1</text>
<rect fill="#000000" height="1" stroke="#000000" stroke-width="1" width="153" x="710" y="165"/>
<rect fill="#000000" height="1" stroke="#000000" stroke-width="1" width="153" x="710" y="186"/>
<rect fill="#c8c8ff" height="69" stroke="#c8c8ff" stroke-width="1" width="153" x="1158" y="134"/>
<rect fill="none" height="69" stroke="#000000" stroke-width="1" width="153" x="1158" y="134"/>
<text font-family="Dialog" font-size="12" x="1163" y="147">
global_catch_ird_level2</text>
<rect fill="#000000" height="1" stroke="#000000" stroke-width="1" width="153" x="1158" y="157"/>
<rect fill="#000000" height="1" stroke="#000000" stroke-width="1" width="153" x="1158" y="179"/>
<rect fill="#ffffff" height="67" stroke="#ffffff" stroke-width="1" width="158" x="14" y="142"/>
<rect fill="none" height="67" stroke="#000000" stroke-width="1" width="158" x="14" y="142"/>
<text font-family="Dialog" font-size="12" x="19" y="155">
RFMOs_primary_dataset</text>
<rect fill="#000000" height="1" stroke="#000000" stroke-width="1" width="158" x="14" y="165"/>
<rect fill="#000000" height="1" stroke="#000000" stroke-width="1" width="158" x="14" y="186"/>
<rect fill="#ffffff" height="67" stroke="#ffffff" stroke-width="1" width="259" x="734" y="406"/>
<rect fill="none" height="67" stroke="#000000" stroke-width="1" width="259" x="734" y="406"/>
<text font-family="Dialog" font-size="12" x="739" y="419">
global_catch_1deg_1m_ps_bb_ird_level1</text>
<rect fill="#000000" height="1" stroke="#000000" stroke-width="1" width="259" x="734" y="429"/>
<rect fill="#000000" height="1" stroke="#000000" stroke-width="1" width="259" x="734" y="450"/>
<rect fill="#ffffff" height="67" stroke="#ffffff" stroke-width="1" width="216" x="774" y="294"/>
<rect fill="none" height="67" stroke="#000000" stroke-width="1" width="216" x="774" y="294"/>
<text font-family="Dialog" font-size="12" x="779" y="307">
global_catch_5deg_1m_ird_level1</text>
<rect fill="#000000" height="1" stroke="#000000" stroke-width="1" width="216" x="774" y="317"/>
<rect fill="#000000" height="1" stroke="#000000" stroke-width="1" width="216" x="774" y="338"/>
<rect fill="#ffffff" height="67" stroke="#ffffff" stroke-width="1" width="259" x="1174" y="398"/>
<rect fill="none" height="67" stroke="#000000" stroke-width="1" width="259" x="1174" y="398"/>
<text font-family="Dialog" font-size="12" x="1179" y="411">
global_catch_1deg_1m_ps_bb_ird_level2</text>
<rect fill="#000000" height="1" stroke="#000000" stroke-width="1" width="259" x="1174" y="421"/>
<rect fill="#000000" height="1" stroke="#000000" stroke-width="1" width="259" x="1174" y="442"/>
<rect fill="#ffffff" height="67" stroke="#ffffff" stroke-width="1" width="216" x="1206" y="286"/>
<rect fill="none" height="67" stroke="#000000" stroke-width="1" width="216" x="1206" y="286"/>
<text font-family="Dialog" font-size="12" x="1211" y="299">
global_catch_5deg_1m_ird_level2</text>
<rect fill="#000000" height="1" stroke="#000000" stroke-width="1" width="216" x="1206" y="309"/>
<rect fill="#000000" height="1" stroke="#000000" stroke-width="1" width="216" x="1206" y="330"/>
<polyline fill="none" points="171,174 342,174" stroke="#000000" stroke-width="1"/>
<line fill="#000000" stroke="#000000" stroke-width="1" x1="330" x2="342" y1="181" y2="174"/>
<line fill="#000000" stroke="#000000" stroke-width="1" x1="330" x2="342" y1="167" y2="174"/>
<text font-family="Dialog" font-size="12" x="212" y="154">
is_input_of</text>
<polyline fill="none" points="494,174 710,174" stroke="#000000" stroke-width="1"/>
<line fill="#000000" stroke="#000000" stroke-width="1" x1="698" x2="710" y1="181" y2="174"/>
<line fill="#000000" stroke="#000000" stroke-width="1" x1="698" x2="710" y1="167" y2="174"/>
<text font-family="Dialog" font-size="12" x="540" y="154">
is_input_of</text>
<polyline fill="none" points="862,174 1158,174" stroke="#000000" stroke-width="1"/>
<line fill="#000000" stroke="#000000" stroke-width="1" x1="1146" x2="1158" y1="181" y2="174"/>
<line fill="#000000" stroke="#000000" stroke-width="1" x1="1146" x2="1158" y1="167" y2="174"/>
<text font-family="Dialog" font-size="12" x="948" y="154">
is_input_of</text>
<polyline fill="none" points="750,208 750,406" stroke="#000000" stroke-width="1"/>
<line fill="#000000" stroke="#000000" stroke-width="1" x1="743" x2="750" y1="394" y2="406"/>
<line fill="#000000" stroke="#000000" stroke-width="1" x1="757" x2="750" y1="394" y2="406"/>
<text font-family="Dialog" font-size="12" x="642" y="300">
is_input_of</text>
<polyline fill="none" points="798,208 798,294" stroke="#000000" stroke-width="1"/>
<line fill="#000000" stroke="#000000" stroke-width="1" x1="791" x2="798" y1="282" y2="294"/>
<line fill="#000000" stroke="#000000" stroke-width="1" x1="805" x2="798" y1="282" y2="294"/>
<text font-family="Dialog" font-size="12" x="824" y="256">
is_input_of</text>
<polyline fill="none" points="1254,202 1254,286" stroke="#000000" stroke-width="1"/>
<line fill="#000000" stroke="#000000" stroke-width="1" x1="1247" x2="1254" y1="274" y2="286"/>
<line fill="#000000" stroke="#000000" stroke-width="1" x1="1261" x2="1254" y1="274" y2="286"/>
<text font-family="Dialog" font-size="12" x="1278" y="240">
is_input_of</text>
<polyline fill="none" points="1174,202 1174,398" stroke="#000000" stroke-width="1"/>
<line fill="#000000" stroke="#000000" stroke-width="1" x1="1167" x2="1174" y1="386" y2="398"/>
<line fill="#000000" stroke="#000000" stroke-width="1" x1="1181" x2="1174" y1="386" y2="398"/>
<text font-family="Dialog" font-size="12" x="1081" y="265">
is_input_of</text>
<polyline fill="none" points="171,142 334,80" stroke="#000000" stroke-width="1"/>
<line fill="#000000" stroke="#000000" stroke-width="1" x1="325" x2="334" y1="90" y2="80"/>
<line fill="#000000" stroke="#000000" stroke-width="1" x1="320" x2="334" y1="77" y2="80"/>
<text font-family="Dialog" font-size="12" x="181" y="93">
is_input_of</text>
<polygon fill="#ffffff" points="638,22 732,22 732,45 781,45 781,121 638,121 638,22" stroke="#ffffff" stroke-width="1"/>
<rect fill="none" height="23" stroke="#000000" stroke-width="1" width="94" x="638" y="22"/>
<rect fill="none" height="76" stroke="#000000" stroke-width="1" width="143" x="638" y="45"/>
</svg>
