<?xml version="1.0" encoding="utf-8" ?>
<!DOCTYPE svg PUBLIC "-//W3C//DTD SVG 1.1//EN" "http://www.w3.org/Graphics/SVG/1.1/DTD/svg11.dtd">
<svg height="444" version="1.1" width="1636" xmlns="http://www.w3.org/2000/svg">
<rect fill="#ffffff" height="67" stroke="#ffffff" stroke-width="1" width="158" x="14" y="134"/>
<rect fill="none" height="67" stroke="#000000" stroke-width="1" width="158" x="14" y="134"/>
<text font-family="Dialog" font-size="12" x="19" y="147">
RFMOs_primary_dataset</text>
<rect fill="#000000" height="1" stroke="#000000" stroke-width="1" width="158" x="14" y="157"/>
<rect fill="#000000" height="1" stroke="#000000" stroke-width="1" width="158" x="14" y="178"/>
<polygon fill="#c8ffff" points="670,14 996,14 996,37 1045,37 1045,429 670,429 670,14" stroke="#c8ffff" stroke-width="1"/>
<rect fill="none" height="23" stroke="#000000" stroke-width="1" width="326" x="670" y="14"/>
<text font-family="Dialog" font-size="12" x="675" y="27">
Level_1</text>
<rect fill="none" height="392" stroke="#000000" stroke-width="1" width="375" x="670" y="37"/>
<rect fill="#ffffff" height="67" stroke="#ffffff" stroke-width="1" width="153" x="710" y="54"/>
<rect fill="none" height="67" stroke="#000000" stroke-width="1" width="153" x="710" y="54"/>
<text font-family="Dialog" font-size="12" x="715" y="67">
global_catch_ird_level1</text>
<rect fill="#000000" height="1" stroke="#000000" stroke-width="1" width="153" x="710" y="77"/>
<rect fill="#000000" height="1" stroke="#000000" stroke-width="1" width="153" x="710" y="98"/>
<rect fill="#ffffff" height="67" stroke="#ffffff" stroke-width="1" width="216" x="798" y="190"/>
<rect fill="none" height="67" stroke="#000000" stroke-width="1" width="216" x="798" y="190"/>
<text font-family="Dialog" font-size="12" x="803" y="203">
global_catch_5deg_1m_ird_level1</text>
<rect fill="#000000" height="1" stroke="#000000" stroke-width="1" width="216" x="798" y="213"/>
<rect fill="#000000" height="1" stroke="#000000" stroke-width="1" width="216" x="798" y="234"/>
<polyline fill="none" points="822,120 822,190" stroke="#000000" stroke-width="1"/>
<line fill="#000000" stroke="#000000" stroke-width="1" x1="815" x2="822" y1="178" y2="190"/>
<line fill="#000000" stroke="#000000" stroke-width="1" x1="829" x2="822" y1="178" y2="190"/>
<text font-family="Dialog" font-size="12" x="848" y="160">
is_input_of</text>
<rect fill="#ffffff" height="69" stroke="#ffffff" stroke-width="1" width="259" x="726" y="318"/>
<rect fill="none" height="69" stroke="#000000" stroke-width="1" width="259" x="726" y="318"/>
<text font-family="Dialog" font-size="12" x="731" y="331">
global_catch_1deg_1m_ps_bb_ird_level1</text>
<rect fill="#000000" height="1" stroke="#000000" stroke-width="1" width="259" x="726" y="341"/>
<rect fill="#000000" height="1" stroke="#000000" stroke-width="1" width="259" x="726" y="363"/>
<polyline fill="none" points="766,120 766,318" stroke="#000000" stroke-width="1"/>
<line fill="#000000" stroke="#000000" stroke-width="1" x1="759" x2="766" y1="306" y2="318"/>
<line fill="#000000" stroke="#000000" stroke-width="1" x1="773" x2="766" y1="306" y2="318"/>
<text font-family="Dialog" font-size="12" x="658" y="212">
is_input_of</text>
<polygon fill="#ffffc8" points="278,14 500,14 500,37 549,37 549,357 278,357 278,14" stroke="#ffffc8" stroke-width="1"/>
<rect fill="none" height="23" stroke="#000000" stroke-width="1" width="222" x="278" y="14"/>
<text font-family="Dialog" font-size="12" x="283" y="27">
Level_0</text>
<rect fill="none" height="320" stroke="#000000" stroke-width="1" width="271" x="278" y="37"/>
<rect fill="#ffffff" height="67" stroke="#ffffff" stroke-width="1" width="208" x="302" y="214"/>
<rect fill="none" height="67" stroke="#000000" stroke-width="1" width="208" x="302" y="214"/>
<text font-family="Dialog" font-size="12" x="307" y="227">
global_nominal_catch_ird_level0</text>
<rect fill="#000000" height="1" stroke="#000000" stroke-width="1" width="208" x="302" y="237"/>
<rect fill="#000000" height="1" stroke="#000000" stroke-width="1" width="208" x="302" y="258"/>
<polyline fill="none" points="171,200 302,214" stroke="#000000" stroke-width="1"/>
<line fill="#000000" stroke="#000000" stroke-width="1" x1="289" x2="302" y1="219" y2="214"/>
<line fill="#000000" stroke="#000000" stroke-width="1" x1="290" x2="302" y1="205" y2="214"/>
<text font-family="Dialog" font-size="12" x="177" y="187">
is_input_of</text>
<rect fill="#ffffff" height="67" stroke="#ffffff" stroke-width="1" width="153" x="310" y="54"/>
<rect fill="none" height="67" stroke="#000000" stroke-width="1" width="153" x="310" y="54"/>
<text font-family="Dialog" font-size="12" x="315" y="67">
global_catch_ird_level0</text>
<rect fill="#000000" height="1" stroke="#000000" stroke-width="1" width="153" x="310" y="77"/>
<rect fill="#000000" height="1" stroke="#000000" stroke-width="1" width="153" x="310" y="98"/>
<polyline fill="none" points="462,86 710,86" stroke="#000000" stroke-width="1"/>
<line fill="#000000" stroke="#000000" stroke-width="1" x1="698" x2="710" y1="93" y2="86"/>
<line fill="#000000" stroke="#000000" stroke-width="1" x1="698" x2="710" y1="79" y2="86"/>
<text font-family="Dialog" font-size="12" x="524" y="66">
is_input_of</text>
<polyline fill="none" points="171,134 310,120" stroke="#000000" stroke-width="1"/>
<line fill="#000000" stroke="#000000" stroke-width="1" x1="298" x2="310" y1="128" y2="120"/>
<line fill="#000000" stroke="#000000" stroke-width="1" x1="297" x2="310" y1="114" y2="120"/>
<text font-family="Dialog" font-size="12" x="194" y="109">
is_input_of</text>
<polygon fill="#c8c8ff" points="1118,14 1572,14 1572,37 1621,37 1621,421 1118,421 1118,14" stroke="#c8c8ff" stroke-width="1"/>
<rect fill="none" height="23" stroke="#000000" stroke-width="1" width="454" x="1118" y="14"/>
<text font-family="Dialog" font-size="12" x="1123" y="27">
Level_2</text>
<rect fill="none" height="384" stroke="#000000" stroke-width="1" width="503" x="1118" y="37"/>
<rect fill="#ffffff" height="67" stroke="#ffffff" stroke-width="1" width="259" x="1182" y="310"/>
<rect fill="none" height="67" stroke="#000000" stroke-width="1" width="259" x="1182" y="310"/>
<text font-family="Dialog" font-size="12" x="1187" y="323">
global_catch_1deg_1m_ps_bb_ird_level2</text>
<rect fill="#000000" height="1" stroke="#000000" stroke-width="1" width="259" x="1182" y="333"/>
<rect fill="#000000" height="1" stroke="#000000" stroke-width="1" width="259" x="1182" y="354"/>
<rect fill="#ffffff" height="67" stroke="#ffffff" stroke-width="1" width="216" x="1254" y="190"/>
<rect fill="none" height="67" stroke="#000000" stroke-width="1" width="216" x="1254" y="190"/>
<text font-family="Dialog" font-size="12" x="1259" y="203">
global_catch_5deg_1m_ird_level2</text>
<rect fill="#000000" height="1" stroke="#000000" stroke-width="1" width="216" x="1254" y="213"/>
<rect fill="#000000" height="1" stroke="#000000" stroke-width="1" width="216" x="1254" y="234"/>
<rect fill="#ffffff" height="69" stroke="#ffffff" stroke-width="1" width="153" x="1198" y="54"/>
<rect fill="none" height="69" stroke="#000000" stroke-width="1" width="153" x="1198" y="54"/>
<text font-family="Dialog" font-size="12" x="1203" y="67">
global_catch_ird_level2</text>
<rect fill="#000000" height="1" stroke="#000000" stroke-width="1" width="153" x="1198" y="77"/>
<rect fill="#000000" height="1" stroke="#000000" stroke-width="1" width="153" x="1198" y="99"/>
<polyline fill="none" points="1230,122 1230,310" stroke="#000000" stroke-width="1"/>
<line fill="#000000" stroke="#000000" stroke-width="1" x1="1223" x2="1230" y1="298" y2="310"/>
<line fill="#000000" stroke="#000000" stroke-width="1" x1="1237" x2="1230" y1="298" y2="310"/>
<text font-family="Dialog" font-size="12" x="1137" y="181">
is_input_of</text>
<polyline fill="none" points="1286,122 1286,190" stroke="#000000" stroke-width="1"/>
<line fill="#000000" stroke="#000000" stroke-width="1" x1="1279" x2="1286" y1="178" y2="190"/>
<line fill="#000000" stroke="#000000" stroke-width="1" x1="1293" x2="1286" y1="178" y2="190"/>
<text font-family="Dialog" font-size="12" x="1310" y="152">
is_input_of</text>
<polyline fill="none" points="862,86 1198,86" stroke="#000000" stroke-width="1"/>
<line fill="#000000" stroke="#000000" stroke-width="1" x1="1186" x2="1198" y1="93" y2="86"/>
<line fill="#000000" stroke="#000000" stroke-width="1" x1="1186" x2="1198" y1="79" y2="86"/>
<text font-family="Dialog" font-size="12" x="968" y="66">
is_input_of</text>
</svg>
