<?xml version="1.0" encoding="utf-8" ?>
<!DOCTYPE svg PUBLIC "-//W3C//DTD SVG 1.1//EN" "http://www.w3.org/Graphics/SVG/1.1/DTD/svg11.dtd">
<svg height="436" version="1.1" width="1452" xmlns="http://www.w3.org/2000/svg">
<rect fill="#ffffff" height="67" stroke="#ffffff" stroke-width="1" width="158" x="14" y="134"/>
<rect fill="none" height="67" stroke="#000000" stroke-width="1" width="158" x="14" y="134"/>
<text font-family="Dialog" font-size="12" x="19" y="147">
RFMOs_primary_dataset</text>
<rect fill="#000000" height="1" stroke="#000000" stroke-width="1" width="158" x="14" y="157"/>
<rect fill="#000000" height="1" stroke="#000000" stroke-width="1" width="158" x="14" y="178"/>
<polygon fill="#c8ffff" points="598,15 940,15 940,38 989,38 989,421 598,421 598,15" stroke="#c8ffff" stroke-width="1"/>
<rect fill="none" height="23" stroke="#000000" stroke-width="1" width="342" x="598" y="15"/>
<text font-family="Dialog" font-size="12" x="603" y="28">
Level_1</text>
<rect fill="none" height="383" stroke="#000000" stroke-width="1" width="391" x="598" y="38"/>
<rect fill="#ffffff" height="67" stroke="#ffffff" stroke-width="1" width="153" x="654" y="55"/>
<rect fill="none" height="67" stroke="#000000" stroke-width="1" width="153" x="654" y="55"/>
<text font-family="Dialog" font-size="12" x="659" y="68">
global_catch_ird_level1</text>
<rect fill="#000000" height="1" stroke="#000000" stroke-width="1" width="153" x="654" y="78"/>
<rect fill="#000000" height="1" stroke="#000000" stroke-width="1" width="153" x="654" y="99"/>
<rect fill="#ffffff" height="67" stroke="#ffffff" stroke-width="1" width="216" x="742" y="191"/>
<rect fill="none" height="67" stroke="#000000" stroke-width="1" width="216" x="742" y="191"/>
<text font-family="Dialog" font-size="12" x="747" y="204">
global_catch_5deg_1m_ird_level1</text>
<rect fill="#000000" height="1" stroke="#000000" stroke-width="1" width="216" x="742" y="214"/>
<rect fill="#000000" height="1" stroke="#000000" stroke-width="1" width="216" x="742" y="235"/>
<polyline fill="none" points="754,121 754,191" stroke="#000000" stroke-width="1"/>
<line fill="#000000" stroke="#000000" stroke-width="1" x1="747" x2="754" y1="179" y2="191"/>
<line fill="#000000" stroke="#000000" stroke-width="1" x1="761" x2="754" y1="179" y2="191"/>
<text font-family="Dialog" font-size="12" x="780" y="161">
is_input_of</text>
<rect fill="#ffffff" height="69" stroke="#ffffff" stroke-width="1" width="259" x="670" y="319"/>
<rect fill="none" height="69" stroke="#000000" stroke-width="1" width="259" x="670" y="319"/>
<text font-family="Dialog" font-size="12" x="675" y="332">
global_catch_1deg_1m_ps_bb_ird_level1</text>
<rect fill="#000000" height="1" stroke="#000000" stroke-width="1" width="259" x="670" y="342"/>
<rect fill="#000000" height="1" stroke="#000000" stroke-width="1" width="259" x="670" y="364"/>
<polyline fill="none" points="682,121 682,319" stroke="#000000" stroke-width="1"/>
<line fill="#000000" stroke="#000000" stroke-width="1" x1="675" x2="682" y1="307" y2="319"/>
<line fill="#000000" stroke="#000000" stroke-width="1" x1="689" x2="682" y1="307" y2="319"/>
<text font-family="Dialog" font-size="12" x="608" y="146">
is_input_of</text>
<polygon fill="#ffffc8" points="278,14 500,14 500,37 549,37 549,357 278,357 278,14" stroke="#ffffc8" stroke-width="1"/>
<rect fill="none" height="23" stroke="#000000" stroke-width="1" width="222" x="278" y="14"/>
<text font-family="Dialog" font-size="12" x="283" y="27">
Level_0</text>
<rect fill="none" height="320" stroke="#000000" stroke-width="1" width="271" x="278" y="37"/>
<rect fill="#ffffff" height="67" stroke="#ffffff" stroke-width="1" width="208" x="302" y="214"/>
<rect fill="none" height="67" stroke="#000000" stroke-width="1" width="208" x="302" y="214"/>
<text font-family="Dialog" font-size="12" x="307" y="227">
global_nominal_catch_ird_level0</text>
<rect fill="#000000" height="1" stroke="#000000" stroke-width="1" width="208" x="302" y="237"/>
<rect fill="#000000" height="1" stroke="#000000" stroke-width="1" width="208" x="302" y="258"/>
<polyline fill="none" points="171,200 302,214" stroke="#000000" stroke-width="1"/>
<line fill="#000000" stroke="#000000" stroke-width="1" x1="289" x2="302" y1="219" y2="214"/>
<line fill="#000000" stroke="#000000" stroke-width="1" x1="290" x2="302" y1="205" y2="214"/>
<text font-family="Dialog" font-size="12" x="177" y="187">
is_input_of</text>
<rect fill="#ffffff" height="67" stroke="#ffffff" stroke-width="1" width="153" x="310" y="54"/>
<rect fill="none" height="67" stroke="#000000" stroke-width="1" width="153" x="310" y="54"/>
<text font-family="Dialog" font-size="12" x="315" y="67">
global_catch_ird_level0</text>
<rect fill="#000000" height="1" stroke="#000000" stroke-width="1" width="153" x="310" y="77"/>
<rect fill="#000000" height="1" stroke="#000000" stroke-width="1" width="153" x="310" y="98"/>
<polyline fill="none" points="462,88 654,88" stroke="#000000" stroke-width="1"/>
<line fill="#000000" stroke="#000000" stroke-width="1" x1="642" x2="654" y1="95" y2="88"/>
<line fill="#000000" stroke="#000000" stroke-width="1" x1="642" x2="654" y1="81" y2="88"/>
<text font-family="Dialog" font-size="12" x="496" y="68">
is_input_of</text>
<polyline fill="none" points="171,134 310,120" stroke="#000000" stroke-width="1"/>
<line fill="#000000" stroke="#000000" stroke-width="1" x1="298" x2="310" y1="128" y2="120"/>
<line fill="#000000" stroke="#000000" stroke-width="1" x1="297" x2="310" y1="114" y2="120"/>
<text font-family="Dialog" font-size="12" x="194" y="109">
is_input_of</text>
<polygon fill="#c8c8ff" points="1054,15 1388,15 1388,38 1437,38 1437,421 1054,421 1054,15" stroke="#c8c8ff" stroke-width="1"/>
<rect fill="none" height="23" stroke="#000000" stroke-width="1" width="334" x="1054" y="15"/>
<text font-family="Dialog" font-size="12" x="1059" y="28">
Level_2</text>
<rect fill="none" height="383" stroke="#000000" stroke-width="1" width="383" x="1054" y="38"/>
<rect fill="#ffffff" height="67" stroke="#ffffff" stroke-width="1" width="259" x="1126" y="311"/>
<rect fill="none" height="67" stroke="#000000" stroke-width="1" width="259" x="1126" y="311"/>
<text font-family="Dialog" font-size="12" x="1131" y="324">
global_catch_1deg_1m_ps_bb_ird_level2</text>
<rect fill="#000000" height="1" stroke="#000000" stroke-width="1" width="259" x="1126" y="334"/>
<rect fill="#000000" height="1" stroke="#000000" stroke-width="1" width="259" x="1126" y="355"/>
<rect fill="#ffffff" height="67" stroke="#ffffff" stroke-width="1" width="216" x="1198" y="191"/>
<rect fill="none" height="67" stroke="#000000" stroke-width="1" width="216" x="1198" y="191"/>
<text font-family="Dialog" font-size="12" x="1203" y="204">
global_catch_5deg_1m_ird_level2</text>
<rect fill="#000000" height="1" stroke="#000000" stroke-width="1" width="216" x="1198" y="214"/>
<rect fill="#000000" height="1" stroke="#000000" stroke-width="1" width="216" x="1198" y="235"/>
<rect fill="#ffffff" height="69" stroke="#ffffff" stroke-width="1" width="153" x="1142" y="55"/>
<rect fill="none" height="69" stroke="#000000" stroke-width="1" width="153" x="1142" y="55"/>
<text font-family="Dialog" font-size="12" x="1147" y="68">
global_catch_ird_level2</text>
<rect fill="#000000" height="1" stroke="#000000" stroke-width="1" width="153" x="1142" y="78"/>
<rect fill="#000000" height="1" stroke="#000000" stroke-width="1" width="153" x="1142" y="100"/>
<polyline fill="none" points="1154,123 1154,311" stroke="#000000" stroke-width="1"/>
<line fill="#000000" stroke="#000000" stroke-width="1" x1="1147" x2="1154" y1="299" y2="311"/>
<line fill="#000000" stroke="#000000" stroke-width="1" x1="1161" x2="1154" y1="299" y2="311"/>
<text font-family="Dialog" font-size="12" x="1061" y="182">
is_input_of</text>
<polyline fill="none" points="1210,123 1210,191" stroke="#000000" stroke-width="1"/>
<line fill="#000000" stroke="#000000" stroke-width="1" x1="1203" x2="1210" y1="179" y2="191"/>
<line fill="#000000" stroke="#000000" stroke-width="1" x1="1217" x2="1210" y1="179" y2="191"/>
<text font-family="Dialog" font-size="12" x="1234" y="153">
is_input_of</text>
<polyline fill="none" points="806,86 1142,86" stroke="#000000" stroke-width="1"/>
<line fill="#000000" stroke="#000000" stroke-width="1" x1="1130" x2="1142" y1="93" y2="86"/>
<line fill="#000000" stroke="#000000" stroke-width="1" x1="1130" x2="1142" y1="79" y2="86"/>
<text font-family="Dialog" font-size="12" x="912" y="66">
is_input_of</text>
</svg>
