<?xml version="1.0" encoding="utf-8" ?>
<!DOCTYPE svg PUBLIC "-//W3C//DTD SVG 1.1//EN" "http://www.w3.org/Graphics/SVG/1.1/DTD/svg11.dtd">
<svg height="503" version="1.1" width="538" xmlns="http://www.w3.org/2000/svg">
<rect fill="#ffffc8" height="67" stroke="#ffffc8" stroke-width="1" width="66" x="66" y="206"/>
<rect fill="none" height="67" stroke="#000000" stroke-width="1" width="66" x="66" y="206"/>
<text font-family="Dialog" font-size="12" x="87" y="219">
fact</text>
<rect fill="#000000" height="1" stroke="#000000" stroke-width="1" width="66" x="66" y="229"/>
<rect fill="#000000" height="1" stroke="#000000" stroke-width="1" width="66" x="66" y="250"/>
<rect fill="#c8ffff" height="66" stroke="#c8ffff" stroke-width="1" width="66" x="266" y="94"/>
<rect fill="none" height="66" stroke="#000000" stroke-width="1" width="66" x="266" y="94"/>
<text font-family="Dialog" font-size="12" x="284" y="107">
gear</text>
<rect fill="#000000" height="1" stroke="#000000" stroke-width="1" width="66" x="266" y="117"/>
<rect fill="#000000" height="1" stroke="#000000" stroke-width="1" width="66" x="266" y="138"/>
<rect fill="#c8ffff" height="66" stroke="#c8ffff" stroke-width="1" width="66" x="266" y="198"/>
<rect fill="none" height="66" stroke="#000000" stroke-width="1" width="66" x="266" y="198"/>
<text font-family="Dialog" font-size="12" x="284" y="211">
area</text>
<rect fill="#000000" height="1" stroke="#000000" stroke-width="1" width="66" x="266" y="221"/>
<rect fill="#000000" height="1" stroke="#000000" stroke-width="1" width="66" x="266" y="242"/>
<rect fill="#c8ffff" height="66" stroke="#c8ffff" stroke-width="1" width="72" x="266" y="294"/>
<rect fill="none" height="66" stroke="#000000" stroke-width="1" width="72" x="266" y="294"/>
<text font-family="Dialog" font-size="12" x="288" y="307">
time</text>
<rect fill="#000000" height="1" stroke="#000000" stroke-width="1" width="72" x="266" y="317"/>
<rect fill="#000000" height="1" stroke="#000000" stroke-width="1" width="72" x="266" y="338"/>
<rect fill="#c8c8ff" height="67" stroke="#c8c8ff" stroke-width="1" width="66" x="66" y="86"/>
<rect fill="none" height="67" stroke="#000000" stroke-width="1" width="66" x="66" y="86"/>
<text font-family="Dialog" font-size="12" x="75" y="99">
species</text>
<rect fill="#000000" height="1" stroke="#000000" stroke-width="1" width="66" x="66" y="109"/>
<rect fill="#000000" height="1" stroke="#000000" stroke-width="1" width="66" x="66" y="130"/>
<rect fill="#ffffc8" height="75" stroke="#ffffc8" stroke-width="1" width="66" x="458" y="198"/>
<rect fill="none" height="75" stroke="#000000" stroke-width="1" width="66" x="458" y="198"/>
<text font-family="Dialog" font-size="12" x="474" y="211">
effort</text>
<rect fill="#000000" height="1" stroke="#000000" stroke-width="1" width="66" x="458" y="221"/>
<rect fill="#000000" height="1" stroke="#000000" stroke-width="1" width="66" x="458" y="246"/>
<rect fill="#c8ffff" height="67" stroke="#c8ffff" stroke-width="1" width="66" x="266" y="14"/>
<rect fill="none" height="67" stroke="#000000" stroke-width="1" width="66" x="266" y="14"/>
<text font-family="Dialog" font-size="12" x="287" y="27">
flag</text>
<rect fill="#000000" height="1" stroke="#000000" stroke-width="1" width="66" x="266" y="37"/>
<rect fill="#000000" height="1" stroke="#000000" stroke-width="1" width="66" x="266" y="58"/>
<rect fill="#c8ffff" height="67" stroke="#c8ffff" stroke-width="1" width="84" x="266" y="422"/>
<rect fill="none" height="67" stroke="#000000" stroke-width="1" width="84" x="266" y="422"/>
<text font-family="Dialog" font-size="12" x="271" y="435">
school_type</text>
<rect fill="#000000" height="1" stroke="#000000" stroke-width="1" width="84" x="266" y="445"/>
<rect fill="#000000" height="1" stroke="#000000" stroke-width="1" width="84" x="266" y="466"/>
<polyline fill="none" points="131,222 266,222" stroke="#000000" stroke-width="1"/>
<line fill="#000000" stroke="#000000" stroke-width="1" x1="254" x2="266" y1="229" y2="222"/>
<line fill="#000000" stroke="#000000" stroke-width="1" x1="254" x2="266" y1="215" y2="222"/>
<polyline fill="none" points="458,222 331,222" stroke="#000000" stroke-width="1"/>
<line fill="#000000" stroke="#000000" stroke-width="1" x1="343" x2="331" y1="215" y2="222"/>
<line fill="#000000" stroke="#000000" stroke-width="1" x1="343" x2="331" y1="229" y2="222"/>
<polyline fill="none" points="131,206 266,159" stroke="#000000" stroke-width="1"/>
<line fill="#000000" stroke="#000000" stroke-width="1" x1="256" x2="266" y1="169" y2="159"/>
<line fill="#000000" stroke="#000000" stroke-width="1" x1="252" x2="266" y1="156" y2="159"/>
<polyline fill="none" points="458,198 331,159" stroke="#000000" stroke-width="1"/>
<line fill="#000000" stroke="#000000" stroke-width="1" x1="344" x2="331" y1="155" y2="159"/>
<line fill="#000000" stroke="#000000" stroke-width="1" x1="340" x2="331" y1="169" y2="159"/>
<polyline fill="none" points="458,198 331,80" stroke="#000000" stroke-width="1"/>
<line fill="#000000" stroke="#000000" stroke-width="1" x1="344" x2="331" y1="83" y2="80"/>
<line fill="#000000" stroke="#000000" stroke-width="1" x1="335" x2="331" y1="93" y2="80"/>
<polyline fill="none" points="131,206 266,80" stroke="#000000" stroke-width="1"/>
<line fill="#000000" stroke="#000000" stroke-width="1" x1="262" x2="266" y1="93" y2="80"/>
<line fill="#000000" stroke="#000000" stroke-width="1" x1="252" x2="266" y1="83" y2="80"/>
<polyline fill="none" points="131,272 266,294" stroke="#000000" stroke-width="1"/>
<line fill="#000000" stroke="#000000" stroke-width="1" x1="253" x2="266" y1="298" y2="294"/>
<line fill="#000000" stroke="#000000" stroke-width="1" x1="255" x2="266" y1="285" y2="294"/>
<polyline fill="none" points="131,272 266,422" stroke="#000000" stroke-width="1"/>
<line fill="#000000" stroke="#000000" stroke-width="1" x1="252" x2="266" y1="417" y2="422"/>
<line fill="#000000" stroke="#000000" stroke-width="1" x1="263" x2="266" y1="408" y2="422"/>
<polyline fill="none" points="458,272 337,294" stroke="#000000" stroke-width="1"/>
<line fill="#000000" stroke="#000000" stroke-width="1" x1="347" x2="337" y1="284" y2="294"/>
<line fill="#000000" stroke="#000000" stroke-width="1" x1="350" x2="337" y1="298" y2="294"/>
<polyline fill="none" points="458,272 349,422" stroke="#000000" stroke-width="1"/>
<line fill="#000000" stroke="#000000" stroke-width="1" x1="350" x2="349" y1="408" y2="422"/>
<line fill="#000000" stroke="#000000" stroke-width="1" x1="361" x2="349" y1="416" y2="422"/>
<polyline fill="none" points="106,206 106,152" stroke="#000000" stroke-width="1"/>
<line fill="#000000" stroke="#000000" stroke-width="1" x1="113" x2="106" y1="164" y2="152"/>
<line fill="#000000" stroke="#000000" stroke-width="1" x1="99" x2="106" y1="164" y2="152"/>
</svg>
