<?xml version="1.0" encoding="utf-8" ?>
<!DOCTYPE svg PUBLIC "-//W3C//DTD SVG 1.1//EN" "http://www.w3.org/Graphics/SVG/1.1/DTD/svg11.dtd">
<svg height="461" version="1.1" width="736" xmlns="http://www.w3.org/2000/svg">
<rect fill="#ffffc8" height="66" stroke="#ffffc8" stroke-width="1" width="66" x="270" y="286"/>
<rect fill="none" height="66" stroke="#000000" stroke-width="1" width="66" x="270" y="286"/>
<text font-family="Dialog" font-size="12" x="278" y="299">
variable</text>
<rect fill="#000000" height="1" stroke="#000000" stroke-width="1" width="66" x="270" y="309"/>
<rect fill="#000000" height="1" stroke="#000000" stroke-width="1" width="66" x="270" y="330"/>
<rect fill="#ffffff" height="67" stroke="#ffffff" stroke-width="1" width="71" x="262" y="14"/>
<rect fill="none" height="67" stroke="#000000" stroke-width="1" width="71" x="262" y="14"/>
<text font-family="Dialog" font-size="12" x="267" y="27">
metadata</text>
<rect fill="#000000" height="1" stroke="#000000" stroke-width="1" width="71" x="262" y="37"/>
<rect fill="#000000" height="1" stroke="#000000" stroke-width="1" width="71" x="262" y="58"/>
<rect fill="#c8ffff" height="117" stroke="#c8ffff" stroke-width="1" width="131" x="470" y="278"/>
<rect fill="none" height="117" stroke="#000000" stroke-width="1" width="131" x="470" y="278"/>
<text font-family="Dialog" font-size="12" x="503" y="291">
dimension</text>
<rect fill="#000000" height="1" stroke="#000000" stroke-width="1" width="131" x="470" y="301"/>
<text font-family="Dialog" font-size="12" x="474" y="315">
label : string</text>
<text font-family="Dialog" font-size="12" x="474" y="331">
code : string</text>
<text font-family="Dialog" font-size="12" x="474" y="347">
definintion : string</text>
<rect fill="#000000" height="1" stroke="#000000" stroke-width="1" width="131" x="470" y="365"/>
<rect fill="#ffffff" height="67" stroke="#ffffff" stroke-width="1" width="147" x="230" y="158"/>
<rect fill="none" height="67" stroke="#000000" stroke-width="1" width="147" x="230" y="158"/>
<text font-family="Dialog" font-size="12" x="235" y="171">
Multidimensional data</text>
<rect fill="#000000" height="1" stroke="#000000" stroke-width="1" width="147" x="230" y="181"/>
<rect fill="#000000" height="1" stroke="#000000" stroke-width="1" width="147" x="230" y="202"/>
<polyline fill="none" points="303,224 303,286" stroke="#000000" stroke-width="1"/>
<polygon fill="#ffffff" points="303,224 308,234 303,244 298,234" stroke="#ffffff" stroke-width="1"/>
<polygon fill="none" points="303,224 308,234 303,244 298,234" stroke="#000000" stroke-width="1"/>
<polyline fill="none" points="376,224 470,278" stroke="#000000" stroke-width="1"/>
<polygon fill="#ffffff" points="376,224 387,224 393,234 382,233" stroke="#ffffff" stroke-width="1"/>
<polygon fill="none" points="376,224 387,224 393,234 382,233" stroke="#000000" stroke-width="1"/>
<rect fill="#ffffff" height="85" stroke="#ffffff" stroke-width="1" width="147" x="14" y="294"/>
<rect fill="none" height="85" stroke="#000000" stroke-width="1" width="147" x="14" y="294"/>
<text font-family="Dialog" font-size="12" x="60" y="307">
measure</text>
<rect fill="#000000" height="1" stroke="#000000" stroke-width="1" width="147" x="14" y="317"/>
<text font-family="Dialog" font-size="12" x="18" y="331">
value : numeric</text>
<text font-family="Dialog" font-size="12" x="18" y="347">
unit_of_measure : unit</text>
<rect fill="#000000" height="1" stroke="#000000" stroke-width="1" width="147" x="14" y="357"/>
<polyline fill="none" points="230,224 160,294" stroke="#000000" stroke-width="1"/>
<polygon fill="#ffffff" points="230,224 226,234 216,238 219,227" stroke="#ffffff" stroke-width="1"/>
<polygon fill="none" points="230,224 226,234 216,238 219,227" stroke="#000000" stroke-width="1"/>
<polyline fill="none" points="335,314 470,314" stroke="#000000" stroke-width="1"/>
<line fill="#000000" stroke="#000000" stroke-width="1" x1="458" x2="470" y1="321" y2="314"/>
<line fill="#000000" stroke="#000000" stroke-width="1" x1="458" x2="470" y1="307" y2="314"/>
<text font-family="Dialog" font-size="12" x="397" y="347">
has</text>
<text font-family="Dialog" font-size="12" x="444" y="309">
1..*</text>
<rect fill="#ffffff" height="67" stroke="#ffffff" stroke-width="1" width="114" x="574" y="198"/>
<rect fill="none" height="67" stroke="#000000" stroke-width="1" width="114" x="574" y="198"/>
<text font-family="Dialog" font-size="12" x="579" y="211">
data_dictionnary</text>
<rect fill="#000000" height="1" stroke="#000000" stroke-width="1" width="114" x="574" y="221"/>
<rect fill="#000000" height="1" stroke="#000000" stroke-width="1" width="114" x="574" y="242"/>
<polyline fill="none" points="574,198 332,80" stroke="#000000" stroke-width="1"/>
<polygon fill="#ffffff" points="332,80 345,78 339,91" stroke="#ffffff" stroke-width="1"/>
<polygon fill="none" points="332,80 345,78 339,91" stroke="#000000" stroke-width="1"/>
<rect fill="#ffffff" height="67" stroke="#ffffff" stroke-width="1" width="162" x="550" y="38"/>
<rect fill="none" height="67" stroke="#000000" stroke-width="1" width="162" x="550" y="38"/>
<text font-family="Dialog" font-size="12" x="580" y="51">
dataset_catalog</text>
<rect fill="#000000" height="1" stroke="#000000" stroke-width="1" width="162" x="550" y="61"/>
<rect fill="#000000" height="1" stroke="#000000" stroke-width="1" width="162" x="550" y="82"/>
<polyline fill="none" points="550,62 332,62" stroke="#000000" stroke-width="1"/>
<polygon fill="#ffffff" points="332,62 344,55 344,69" stroke="#ffffff" stroke-width="1"/>
<polygon fill="none" points="332,62 344,55 344,69" stroke="#000000" stroke-width="1"/>
<polyline fill="none" points="630,104 630,198" stroke="#000000" stroke-width="1"/>
<line fill="#000000" stroke="#000000" stroke-width="1" x1="623" x2="630" y1="186" y2="198"/>
<line fill="#000000" stroke="#000000" stroke-width="1" x1="637" x2="630" y1="186" y2="198"/>
<text font-family="Dialog" font-size="12" x="643" y="131">
1</text>
<text font-family="Dialog" font-size="12" x="636" y="181">
0..*</text>
<polyline fill="none" points="600,326 670,326 670,430 566,430 566,394" stroke="#000000" stroke-width="1"/>
<polyline fill="none" points="302,158 302,80" stroke="#000000" stroke-width="1"/>
<polygon fill="#ffffff" points="302,158 297,148 302,138 307,148" stroke="#ffffff" stroke-width="1"/>
<polygon fill="none" points="302,158 297,148 302,138 307,148" stroke="#000000" stroke-width="1"/>
<line fill="#000000" stroke="#000000" stroke-width="1" x1="309" x2="302" y1="92" y2="80"/>
<line fill="#000000" stroke="#000000" stroke-width="1" x1="295" x2="302" y1="92" y2="80"/>
<polyline fill="none" points="270,318 230,318 160,318" stroke="#000000" stroke-width="1"/>
<line fill="#000000" stroke="#000000" stroke-width="1" x1="172" x2="160" y1="311" y2="318"/>
<line fill="#000000" stroke="#000000" stroke-width="1" x1="172" x2="160" y1="325" y2="318"/>
<text font-family="Dialog" font-size="12" x="171" y="298">
has_value</text>
<text font-family="Dialog" font-size="12" x="179" y="333">
1</text>
<polyline fill="none" points="160,374 470,374" stroke="#000000" stroke-width="1"/>
<line fill="#000000" stroke="#000000" stroke-width="1" x1="458" x2="470" y1="381" y2="374"/>
<line fill="#000000" stroke="#000000" stroke-width="1" x1="458" x2="470" y1="367" y2="374"/>
<text font-family="Dialog" font-size="12" x="273" y="397">
has_context</text>
</svg>
