<?xml version="1.0" encoding="utf-8" ?>
<!DOCTYPE svg PUBLIC "-//W3C//DTD SVG 1.1//EN" "http://www.w3.org/Graphics/SVG/1.1/DTD/svg11.dtd">
<svg height="364" version="1.1" width="584" xmlns="http://www.w3.org/2000/svg">
<rect fill="#c8ffff" height="101" stroke="#c8ffff" stroke-width="1" width="128" x="145" y="123"/>
<rect fill="none" height="101" stroke="#000000" stroke-width="1" width="128" x="145" y="123"/>
<text font-family="Dialog" font-size="12" x="177" y="136">
dimension</text>
<rect fill="#000000" height="1" stroke="#000000" stroke-width="1" width="128" x="145" y="146"/>
<text font-family="Dialog" font-size="12" x="149" y="160">
label : string</text>
<text font-family="Dialog" font-size="12" x="149" y="176">
code : string</text>
<text font-family="Dialog" font-size="12" x="149" y="192">
definintion : string</text>
<rect fill="#000000" height="1" stroke="#000000" stroke-width="1" width="128" x="145" y="202"/>
<polyline fill="none" points="145,139 81,139 81,75 153,75 153,123" stroke="#000000" stroke-width="1"/>
<polyline fill="none" points="241,123 241,75 321,75 321,139 272,139" stroke="#000000" stroke-width="1"/>
<ellipse cx="314" cy="72" fill="#000000" rx="0.5" ry="0.5" stroke="#000000" stroke-width="1"/>
<ellipse cx="315" cy="73" fill="#ffffff" rx="-0.5" ry="-0.5" stroke="#ffffff" stroke-width="1"/>
<rect fill="#ffffff" height="67" stroke="#ffffff" stroke-width="1" width="134" x="436" y="14"/>
<rect fill="none" height="67" stroke="#000000" stroke-width="1" width="134" x="436" y="14"/>
<text font-family="Dialog" font-size="12" x="441" y="27">
dimension_mapping</text>
<rect fill="#000000" height="1" stroke="#000000" stroke-width="1" width="134" x="436" y="37"/>
<rect fill="#000000" height="1" stroke="#000000" stroke-width="1" width="134" x="436" y="58"/>
<line fill="#000000" stroke="#000000" stroke-width="1" x1="314" x2="319" y1="72" y2="72"/>
<line fill="#000000" stroke="#000000" stroke-width="1" x1="324" x2="329" y1="72" y2="72"/>
<line fill="#000000" stroke="#000000" stroke-width="1" x1="334" x2="339" y1="72" y2="72"/>
<line fill="#000000" stroke="#000000" stroke-width="1" x1="344" x2="349" y1="72" y2="72"/>
<line fill="#000000" stroke="#000000" stroke-width="1" x1="354" x2="359" y1="72" y2="72"/>
<line fill="#000000" stroke="#000000" stroke-width="1" x1="364" x2="369" y1="72" y2="72"/>
<line fill="#000000" stroke="#000000" stroke-width="1" x1="374" x2="379" y1="72" y2="72"/>
<line fill="#000000" stroke="#000000" stroke-width="1" x1="384" x2="389" y1="72" y2="72"/>
<line fill="#000000" stroke="#000000" stroke-width="1" x1="394" x2="399" y1="72" y2="72"/>
<line fill="#000000" stroke="#000000" stroke-width="1" x1="404" x2="409" y1="72" y2="72"/>
<line fill="#000000" stroke="#000000" stroke-width="1" x1="414" x2="419" y1="72" y2="72"/>
<line fill="#000000" stroke="#000000" stroke-width="1" x1="424" x2="429" y1="72" y2="72"/>
<line fill="#000000" stroke="#000000" stroke-width="1" x1="434" x2="436" y1="72" y2="72"/>
<rect fill="#c8ffff" height="67" stroke="#c8ffff" stroke-width="1" width="137" x="65" y="283"/>
<rect fill="none" height="67" stroke="#000000" stroke-width="1" width="137" x="65" y="283"/>
<text font-family="Dialog" font-size="12" x="70" y="296">
standard_dimension</text>
<rect fill="#000000" height="1" stroke="#000000" stroke-width="1" width="137" x="65" y="306"/>
<rect fill="#000000" height="1" stroke="#000000" stroke-width="1" width="137" x="65" y="327"/>
<rect fill="#c8ffff" height="67" stroke="#c8ffff" stroke-width="1" width="127" x="225" y="283"/>
<rect fill="none" height="67" stroke="#000000" stroke-width="1" width="127" x="225" y="283"/>
<text font-family="Dialog" font-size="12" x="230" y="296">
specific_dimension</text>
<rect fill="#000000" height="1" stroke="#000000" stroke-width="1" width="127" x="225" y="306"/>
<rect fill="#000000" height="1" stroke="#000000" stroke-width="1" width="127" x="225" y="327"/>
<polyline fill="none" points="169,283 169,223" stroke="#000000" stroke-width="1"/>
<polygon fill="#ffffff" points="169,223 176,235 162,235" stroke="#ffffff" stroke-width="1"/>
<polygon fill="none" points="169,223 176,235 162,235" stroke="#000000" stroke-width="1"/>
<polyline fill="none" points="249,283 249,223" stroke="#000000" stroke-width="1"/>
<polygon fill="#ffffff" points="249,223 256,235 242,235" stroke="#ffffff" stroke-width="1"/>
<polygon fill="none" points="249,223 256,235 242,235" stroke="#000000" stroke-width="1"/>
</svg>
