<?xml version="1.0" encoding="utf-8" ?>
<!DOCTYPE svg PUBLIC "-//W3C//DTD SVG 1.1//EN" "http://www.w3.org/Graphics/SVG/1.1/DTD/svg11.dtd">
<svg height="407" version="1.1" width="574" xmlns="http://www.w3.org/2000/svg">
<rect fill="#ffffc8" height="66" stroke="#ffffc8" stroke-width="1" width="128" x="230" y="150"/>
<rect fill="none" height="66" stroke="#000000" stroke-width="1" width="128" x="230" y="150"/>
<text font-family="Dialog" font-size="12" x="276" y="163">
catch</text>
<rect fill="#000000" height="1" stroke="#000000" stroke-width="1" width="128" x="230" y="173"/>
<rect fill="#000000" height="1" stroke="#000000" stroke-width="1" width="128" x="230" y="194"/>
<rect fill="#c8ffff" height="67" stroke="#c8ffff" stroke-width="1" width="66" x="486" y="38"/>
<rect fill="none" height="67" stroke="#000000" stroke-width="1" width="66" x="486" y="38"/>
<text font-family="Dialog" font-size="12" x="505" y="51">
time</text>
<rect fill="#000000" height="1" stroke="#000000" stroke-width="1" width="66" x="486" y="61"/>
<rect fill="#000000" height="1" stroke="#000000" stroke-width="1" width="66" x="486" y="82"/>
<polyline fill="none" points="357,150 486,104" stroke="#000000" stroke-width="1"/>
<line fill="#000000" stroke="#000000" stroke-width="1" x1="477" x2="486" y1="114" y2="104"/>
<line fill="#000000" stroke="#000000" stroke-width="1" x1="472" x2="486" y1="101" y2="104"/>
<rect fill="#c8ffff" height="67" stroke="#c8ffff" stroke-width="1" width="66" x="494" y="158"/>
<rect fill="none" height="67" stroke="#000000" stroke-width="1" width="66" x="494" y="158"/>
<text font-family="Dialog" font-size="12" x="512" y="171">
area</text>
<rect fill="#000000" height="1" stroke="#000000" stroke-width="1" width="66" x="494" y="181"/>
<rect fill="#000000" height="1" stroke="#000000" stroke-width="1" width="66" x="494" y="202"/>
<polyline fill="none" points="357,183 494,183" stroke="#000000" stroke-width="1"/>
<line fill="#000000" stroke="#000000" stroke-width="1" x1="482" x2="494" y1="190" y2="183"/>
<line fill="#000000" stroke="#000000" stroke-width="1" x1="482" x2="494" y1="176" y2="183"/>
<rect fill="#c8ffff" height="67" stroke="#c8ffff" stroke-width="1" width="66" x="118" y="318"/>
<rect fill="none" height="67" stroke="#000000" stroke-width="1" width="66" x="118" y="318"/>
<text font-family="Dialog" font-size="12" x="139" y="331">
flag</text>
<rect fill="#000000" height="1" stroke="#000000" stroke-width="1" width="66" x="118" y="341"/>
<rect fill="#000000" height="1" stroke="#000000" stroke-width="1" width="66" x="118" y="362"/>
<polyline fill="none" points="230,215 183,318" stroke="#000000" stroke-width="1"/>
<line fill="#000000" stroke="#000000" stroke-width="1" x1="181" x2="183" y1="304" y2="318"/>
<line fill="#000000" stroke="#000000" stroke-width="1" x1="194" x2="183" y1="309" y2="318"/>
<rect fill="#c8ffff" height="67" stroke="#c8ffff" stroke-width="1" width="66" x="286" y="14"/>
<rect fill="none" height="67" stroke="#000000" stroke-width="1" width="66" x="286" y="14"/>
<text font-family="Dialog" font-size="12" x="295" y="27">
species</text>
<rect fill="#000000" height="1" stroke="#000000" stroke-width="1" width="66" x="286" y="37"/>
<rect fill="#000000" height="1" stroke="#000000" stroke-width="1" width="66" x="286" y="58"/>
<polyline fill="none" points="286,150 286,80" stroke="#000000" stroke-width="1"/>
<line fill="#000000" stroke="#000000" stroke-width="1" x1="293" x2="286" y1="92" y2="80"/>
<line fill="#000000" stroke="#000000" stroke-width="1" x1="279" x2="286" y1="92" y2="80"/>
<rect fill="#c8ffff" height="67" stroke="#c8ffff" stroke-width="1" width="84" x="70" y="54"/>
<rect fill="none" height="67" stroke="#000000" stroke-width="1" width="84" x="70" y="54"/>
<text font-family="Dialog" font-size="12" x="75" y="67">
school_type</text>
<rect fill="#000000" height="1" stroke="#000000" stroke-width="1" width="84" x="70" y="77"/>
<rect fill="#000000" height="1" stroke="#000000" stroke-width="1" width="84" x="70" y="98"/>
<polyline fill="none" points="230,150 153,120" stroke="#000000" stroke-width="1"/>
<line fill="#000000" stroke="#000000" stroke-width="1" x1="166" x2="153" y1="117" y2="120"/>
<line fill="#000000" stroke="#000000" stroke-width="1" x1="161" x2="153" y1="130" y2="120"/>
<rect fill="#c8ffff" height="67" stroke="#c8ffff" stroke-width="1" width="66" x="438" y="326"/>
<rect fill="none" height="67" stroke="#000000" stroke-width="1" width="66" x="438" y="326"/>
<text font-family="Dialog" font-size="12" x="456" y="339">
gear</text>
<rect fill="#000000" height="1" stroke="#000000" stroke-width="1" width="66" x="438" y="349"/>
<rect fill="#000000" height="1" stroke="#000000" stroke-width="1" width="66" x="438" y="370"/>
<polyline fill="none" points="357,215 438,326" stroke="#000000" stroke-width="1"/>
<line fill="#000000" stroke="#000000" stroke-width="1" x1="425" x2="438" y1="320" y2="326"/>
<line fill="#000000" stroke="#000000" stroke-width="1" x1="436" x2="438" y1="312" y2="326"/>
<rect fill="#c8ffff" height="69" stroke="#c8ffff" stroke-width="1" width="113" x="14" y="166"/>
<rect fill="none" height="69" stroke="#000000" stroke-width="1" width="113" x="14" y="166"/>
<text font-family="Dialog" font-size="12" x="49" y="179">
source</text>
<rect fill="#000000" height="1" stroke="#000000" stroke-width="1" width="113" x="14" y="189"/>
<text font-family="Dialog" font-size="12" x="18" y="203">
newAttr : Integer</text>
<rect fill="#000000" height="1" stroke="#000000" stroke-width="1" width="113" x="14" y="213"/>
<polyline fill="none" points="230,182 126,182" stroke="#000000" stroke-width="1"/>
<line fill="#000000" stroke="#000000" stroke-width="1" x1="138" x2="126" y1="175" y2="182"/>
<line fill="#000000" stroke="#000000" stroke-width="1" x1="138" x2="126" y1="189" y2="182"/>
</svg>
